<svg width="24" height="24" viewBox="0 0 24 24" fill="none" xmlns="http://www.w3.org/2000/svg">
<mask id="mask0_2036_4498" style="mask-type:luminance" maskUnits="userSpaceOnUse" x="3" y="2" width="18" height="20">
<path d="M20.3077 2.76929H3.69231V21.2308H20.3077V2.76929Z" fill="white"/>
</mask>
<g mask="url(#mask0_2036_4498)">
<path fill-rule="evenodd" clip-rule="evenodd" d="M7.7811 11.5488C7.56806 11.3532 7.34395 11.168 7.10937 10.9943C7.34394 11.1681 7.56805 11.3532 7.7811 11.5488ZM7.10937 10.9943C7.83378 10.2257 8.3696 9.29779 8.67315 8.28618C8.38528 8.16118 8.10283 8.01916 7.8272 7.86003L7.50397 7.6734C6.78193 7.25654 5.8586 7.50394 5.4417 8.226C5.02482 8.94807 5.27222 9.87139 5.99428 10.2883L6.31751 10.4749C6.59306 10.634 6.85726 10.8075 7.10937 10.9943ZM8.94685 6.74867C8.82377 6.68725 8.70211 6.6219 8.58205 6.55256L8.25883 6.36596C6.81468 5.53218 4.96806 6.027 4.13426 7.47113C3.30047 8.91532 3.79528 10.762 5.23941 11.5957L5.56265 11.7823C7.08379 12.6606 8.18226 14.0778 8.67317 15.7138C9.1392 15.5115 9.61938 15.3538 10.1074 15.241C9.73839 14.0328 9.09789 12.9236 8.236 12C9.09792 11.0764 9.73841 9.96717 10.1074 8.759C12.1278 9.22618 14.2833 8.92654 16.1306 7.86004L16.4538 7.67341C17.176 7.2565 18.0991 7.50391 18.5162 8.22601C18.9329 8.94808 18.6856 9.87138 17.9634 10.2882L17.6403 10.4749C17.3647 10.634 17.1005 10.8076 16.8484 10.9943C16.8574 11.0039 16.8666 11.0136 16.8757 11.0231C16.2684 10.3863 15.7915 9.63828 15.4704 8.82275C15.0032 9.02287 14.523 9.18104 14.0352 9.2973C14.7054 11.0513 15.9625 12.5565 17.6403 13.5252L17.9634 13.7118C18.6856 14.1287 18.933 15.052 18.5162 15.7741C18.0993 16.4962 17.176 16.7436 16.4538 16.3267L16.1306 16.1401C15.855 15.9809 15.5725 15.8389 15.2847 15.7139C15.136 16.2093 15.043 16.7247 15.0109 17.2515C15.134 17.3128 15.2557 17.3782 15.3758 17.4475L15.699 17.6341C17.143 18.4678 18.9898 17.9731 19.8235 16.529C20.6574 15.0848 20.1625 13.2381 18.7184 12.4044L18.3951 12.2177C18.2041 12.1074 18.0197 11.9886 17.8424 11.8619C17.9083 11.9091 17.9753 11.9551 18.0432 12C18.1578 11.9242 18.2752 11.8516 18.3951 11.7823L18.7182 11.5958C20.1625 10.762 20.6574 8.9153 19.8235 7.47114C18.9898 6.02701 17.143 5.53216 15.699 6.36597L15.3757 6.55262C15.2556 6.62194 15.134 6.6873 15.0109 6.7487C15.0026 6.61119 14.9982 6.47299 14.9982 6.33416V5.96093C14.9982 4.29337 13.6465 2.94153 11.9789 2.94153C10.3113 2.94153 8.95947 4.29337 8.95947 5.96093V6.33416C8.95947 6.47298 8.95523 6.61121 8.94685 6.74867ZM13.5425 7.2805C13.5068 6.96849 13.4886 6.65264 13.4886 6.33416V5.96093C13.4886 5.12716 12.8127 4.45124 11.9789 4.45124C11.1451 4.45124 10.4692 5.12716 10.4692 5.96093V6.33416C10.4692 6.65263 10.4509 6.96851 10.4152 7.28051C11.4431 7.5235 12.5147 7.52351 13.5425 7.2805ZM8.95947 17.8843C9.43809 17.6191 9.94292 17.4214 10.4608 17.2912C10.4664 17.4156 10.4692 17.5404 10.4692 17.6659V18.0391C10.4692 18.8728 11.1451 19.5489 11.9789 19.5489C12.8127 19.5489 13.4886 18.8728 13.4886 18.0391V17.6659C13.4886 17.3474 13.5068 17.0316 13.5425 16.7196C11.8802 16.3266 10.1033 16.5692 8.58209 17.4475L8.25883 17.6341C6.81468 18.468 4.96806 17.9731 4.13427 16.529C3.30047 15.0848 3.79528 13.2382 5.23943 12.4044L5.37258 12.3275C5.84177 12.6093 6.2655 12.9476 6.63712 13.331C6.53233 13.3979 6.42582 13.4627 6.31751 13.5252L5.99428 13.7119C5.27222 14.1287 5.02482 15.0521 5.4417 15.7741C5.8586 16.4962 6.78193 16.7436 7.50397 16.3267L7.82724 16.1401C9.67447 15.0736 11.8299 14.774 13.8503 15.2411C14.1639 14.2146 14.6733 13.2595 15.3481 12.4291C15.6926 12.7934 16.0698 13.1302 16.4766 13.4348C15.5344 14.6188 14.9982 16.1041 14.9982 17.6659V18.0391C14.9982 19.7066 13.6464 21.0585 11.9789 21.0585C10.3113 21.0585 8.95947 19.7066 8.95947 18.0391V17.8843Z" fill="url(#paint0_linear_2036_4498)"/>
</g>
<defs>
<linearGradient id="paint0_linear_2036_4498" x1="3.72923" y1="5.96094" x2="5.38215" y2="22.5572" gradientUnits="userSpaceOnUse">
<stop stop-color="#AD1A98"/>
<stop offset="1" stop-color="#3768C7"/>
</linearGradient>
</defs>
</svg>
