<svg width="96" height="96" viewBox="0 0 96 96" fill="none" xmlns="http://www.w3.org/2000/svg">
<mask id="mask0_161_38431" style="mask-type:luminance" maskUnits="userSpaceOnUse" x="14" y="11" width="68" height="74">
<path d="M81.2311 11.082H14.7695V84.9282H81.2311V11.082Z" fill="white"/>
</mask>
<g mask="url(#mask0_161_38431)">
<path d="M47.9154 11.7695C54.5859 11.7695 59.9926 17.1774 59.9926 23.8477V25.3408C59.9926 25.896 60.0101 26.4491 60.0433 26.999C58.1552 27.9411 56.1836 28.6499 54.1703 29.126C54.0274 27.878 53.9545 26.6146 53.9545 25.3408V23.8477C53.9545 20.5126 51.2507 17.8086 47.9154 17.8086C44.5805 17.8086 41.8763 20.5126 41.8763 23.8477V25.3408C41.8763 26.6622 41.7967 27.9723 41.6429 29.2656C41.6482 29.221 41.6554 29.1765 41.6605 29.1318C48.3103 30.7039 55.4171 29.7328 61.5023 26.2197L62.7953 25.4736C68.5714 22.1385 75.9593 24.1172 79.2943 29.8936C82.6295 35.6701 80.6501 43.0572 74.8734 46.3926L73.5804 47.1387C73.1037 47.4139 72.6366 47.7027 72.181 48.0039C72.637 48.3053 73.1034 48.5946 73.5804 48.8701L74.8734 49.6172C80.6495 52.952 82.6293 60.3387 79.2943 66.1152C75.9594 71.8918 68.5715 73.871 62.7953 70.5361L61.5033 69.79C61.023 69.5128 60.5358 69.2514 60.0433 69.0059C60.0102 69.5525 59.9926 70.1022 59.9926 70.6543V72.1475C59.9925 78.8176 54.5855 84.2246 47.9154 84.2246C41.2453 84.2246 35.8383 78.8176 35.8383 72.1475V71.5283C37.7527 70.4676 39.7719 69.6768 41.8431 69.1562C41.8656 69.6538 41.8763 70.1527 41.8763 70.6543V72.1475C41.8764 75.4823 44.5805 78.1865 47.9154 78.1865C51.2506 78.1865 53.9544 75.4823 53.9545 72.1475V70.6543C53.9545 69.3841 54.0281 68.1244 54.1703 66.8799L53.5453 66.7402C47.0773 65.3711 40.2234 66.3886 34.3285 69.792L33.0345 70.5381C27.258 73.8734 19.8716 71.8937 16.5365 66.1172C13.2015 60.3406 15.1809 52.9544 20.9574 49.6191L21.4896 49.3115C23.3664 50.4388 25.0618 51.7918 26.5482 53.3252C26.1291 53.5929 25.7031 53.8526 25.2699 54.1025L23.9769 54.8486C21.0888 56.516 20.0988 60.2096 21.766 63.0977C23.4336 65.9861 27.1278 66.976 30.016 65.3086L31.309 64.5615C32.4106 63.9255 33.5402 63.359 34.6908 62.8594C32.7264 56.3174 28.3333 50.6506 22.2504 47.1387L20.9574 46.3926C15.1809 43.0577 13.2013 35.6703 16.5365 29.8936C19.8717 24.1172 27.258 22.1387 33.0345 25.4736L34.3275 26.2197C34.8068 26.4965 35.2932 26.7567 35.7845 27.002C35.8182 26.451 35.8382 25.8972 35.8383 25.3408V23.8477C35.8383 17.1774 41.2453 11.7695 47.9154 11.7695ZM74.0648 32.9131C72.3966 30.0249 68.7036 29.0355 65.8148 30.7031L64.5219 31.4492C57.133 35.715 48.5116 36.9144 40.4301 35.0459C40.4628 34.9387 40.4921 34.8302 40.5238 34.7227C39.0641 39.6782 36.4666 44.229 32.9437 48.0039C31.5768 46.5393 30.0709 45.1909 28.4379 43.9814C31.3344 40.9083 33.4744 37.197 34.6888 33.1523C33.5387 32.6527 32.4103 32.085 31.309 31.4492L30.016 30.7031C27.1278 29.0357 23.4336 30.0249 21.766 32.9131C20.0985 35.8014 21.0887 39.4947 23.9769 41.1621L25.2699 41.9092C32.6563 46.1739 38.0034 53.0378 40.4271 60.9678C45.3509 59.8288 50.475 59.8268 55.3988 60.9648C56.6527 56.8554 58.691 53.0314 61.392 49.707C62.7699 51.1644 64.279 52.5124 65.9066 53.7305C62.4755 58.042 60.3905 63.352 60.0443 68.9824C60.1741 66.8837 60.5455 64.8298 61.1381 62.8555C62.2892 63.3554 63.4194 63.9231 64.5219 64.5596L65.8148 65.3066C68.7033 66.9741 72.3974 65.9842 74.0648 63.0957C75.732 60.2077 74.7422 56.5141 71.8539 54.8467L70.5609 54.1006C63.8498 50.2259 58.822 44.2046 56.141 37.1885C58.0918 36.7235 60.0128 36.0914 61.8812 35.291C63.1474 38.5064 65.0202 41.4581 67.3998 43.9814C68.4061 43.2364 69.4612 42.5443 70.5609 41.9092L71.8539 41.1621C74.7422 39.4946 75.7315 35.8013 74.0648 32.9131ZM34.9955 32.0469C35.022 31.9428 35.0493 31.8389 35.0746 31.7344C35.0493 31.8389 35.022 31.9428 34.9955 32.0469ZM35.1556 31.3848C35.1809 31.2739 35.2059 31.163 35.2299 31.0518C35.206 31.163 35.1809 31.2739 35.1556 31.3848ZM35.3099 30.665C35.3307 30.561 35.3509 30.4569 35.3705 30.3525C35.3509 30.4569 35.3307 30.561 35.3099 30.665ZM35.4388 29.9766C35.4615 29.8457 35.4825 29.7144 35.5033 29.583C35.4826 29.7144 35.4615 29.8456 35.4388 29.9766ZM35.6722 28.3164C35.6881 28.1724 35.7046 28.0283 35.7181 27.8838C35.7046 28.0283 35.6881 28.1724 35.6722 28.3164ZM35.7435 27.5723C35.7553 27.4286 35.7672 27.2848 35.7767 27.1406C35.7672 27.2848 35.7553 27.4286 35.7435 27.5723Z" fill="url(#paint0_linear_161_38431)"/>
</g>
<defs>
<linearGradient id="paint0_linear_161_38431" x1="14.9164" y1="48.0507" x2="80.9143" y2="48.096" gradientUnits="userSpaceOnUse">
<stop stop-color="#4625EB"/>
<stop offset="1" stop-color="#A500BF"/>
</linearGradient>
</defs>
</svg>
