<svg width="16" height="16" viewBox="0 0 16 16" fill="none" xmlns="http://www.w3.org/2000/svg">
<path d="M9.99992 2.66536V7.33203H3.44659L3.05325 7.72536L2.66659 8.11203V2.66536H9.99992ZM10.6666 1.33203H1.99992C1.63325 1.33203 1.33325 1.63203 1.33325 1.9987V11.332L3.99992 8.66536H10.6666C11.0333 8.66536 11.3333 8.36537 11.3333 7.9987V1.9987C11.3333 1.63203 11.0333 1.33203 10.6666 1.33203ZM13.9999 3.9987H12.6666V9.9987H3.99992V11.332C3.99992 11.6987 4.29992 11.9987 4.66659 11.9987H11.9999L14.6666 14.6654V4.66536C14.6666 4.2987 14.3666 3.9987 13.9999 3.9987Z" fill="#0F172A"/>
</svg>
